<svg viewBox="0 0 269 53" xmlns="http://www.w3.org/2000/svg"><g fill="#00000" fill-rule="evenodd"><path d="M182.157 5.089l-3.236 1.074V18.57h3.236V5.089zM126.67 26.022h-2.103v15.231h2.103v-7.226h5.819v7.226h2.144V26.022h-2.144v6.255h-5.82v-6.255zm-17.52 12.912l-.731 1.456c1.283.75 2.788 1.173 4.137 1.173 2.59 0 4.358-1.504 4.358-3.713 0-1.46-.84-2.63-2.873-3.097l-1.44-.331c-1.172-.266-1.571-.706-1.571-1.504 0-.996.751-1.658 1.925-1.658.884 0 1.703.287 2.72.799l.687-1.44c-.908-.529-2.147-.907-3.495-.907-2.39 0-4.005 1.416-4.005 3.451 0 1.634.953 2.739 2.698 3.07l1.35.266c1.285.245 1.857.798 1.857 1.75 0 1.08-.839 1.786-2.058 1.786-1.235 0-2.498-.504-3.559-1.101zm-23.746-9.39l-2.103.7v11.01h2.103v-11.71zm-2.479-2.772c0 .798.619 1.46 1.414 1.46.823 0 1.484-.662 1.484-1.46 0-.84-.624-1.48-1.42-1.48a1.49 1.49 0 00-1.478 1.48zm-7.26-.75h-2.167v15.231h7.612l.355-1.766h-5.8V26.022zm-16.81 8.621c0-2.011.772-3.27 2.322-3.27.71 0 1.239.33 1.594.77.44.553.686 1.44.686 2.5h-4.602zm-.976-3.294c-.948 1.13-1.327 2.367-1.327 4.29 0 3.623 1.88 5.86 4.956 5.86 1.437 0 2.744-.468 3.83-1.419l-.775-1.215c-.799.71-1.683 1.061-2.721 1.061-1.061 0-1.97-.42-2.546-1.303-.331-.531-.464-1.261-.464-2.21v-.265h6.747v-.355c-.023-2.544-.375-3.779-1.347-4.775-.775-.794-1.771-1.194-3.011-1.194-1.372 0-2.454.485-3.342 1.525zm-8.498-.42c-1.065.952-1.861 2.388-1.861 4.884 0 1.682.331 2.964 1.062 4.004.774 1.106 1.97 1.657 3.563 1.657 1.417 0 2.345-.398 3.407-1.439l-.997-1.258c-.662.754-1.481 1.149-2.3 1.149-.642 0-1.195-.242-1.594-.664-.573-.618-.885-1.634-.885-3.183 0-1.524.157-2.629.53-3.383a2.143 2.143 0 011.948-1.194c.71 0 1.22.222 1.95.864l1.061-1.392c-.843-.774-1.816-1.17-3.01-1.17-1.086 0-2.059.396-2.874 1.126zm-20.62 3.714c0-2.011.775-3.27 2.321-3.27.71 0 1.243.33 1.594.77.444.553.687 1.44.687 2.5H28.76zm-.972-3.294c-.952 1.13-1.328 2.367-1.328 4.29 0 3.623 1.88 5.86 4.955 5.86 1.437 0 2.745-.468 3.827-1.419l-.774-1.215c-.796.71-1.684 1.061-2.721 1.061-1.062 0-1.97-.42-2.546-1.303-.328-.531-.465-1.261-.465-2.21v-.265h6.751v-.355c-.023-2.544-.378-3.779-1.351-4.775-.774-.794-1.768-1.194-3.007-1.194-1.372 0-2.457.485-3.341 1.525zm-3.199-1.804l-2.099.699v11.01h2.1v-11.71zM1.23 38.559l-.84 1.634c1.482.907 3.165 1.35 4.912 1.35 4.004 0 5.751-2.609 5.751-4.734 0-2.363-1.679-3.69-3.717-4.287l-1.792-.532c-1.638-.488-2.255-1.105-2.255-2.186 0-1.415 1.061-2.302 2.764-2.302 1.263 0 2.212.335 3.629 1.194l.952-1.504c-1.352-.948-2.987-1.436-4.67-1.436-3.006 0-5.044 1.79-5.044 4.423 0 2.166 1.306 3.271 3.607 3.932l1.595.467c1.702.485 2.518 1.348 2.518 2.586 0 1.637-1.304 2.653-3.293 2.653-1.53 0-2.789-.44-4.117-1.258zM11.595 4.536l.56-2.81H0v2.81h4.127V18.57H7.57V4.536h4.025zM14.35 30.93c-1.064.95-1.86 2.387-1.86 4.883 0 1.682.335 2.964 1.062 4.004.774 1.106 1.97 1.657 3.563 1.657 1.417 0 2.346-.398 3.406-1.439l-.996-1.258c-.662.754-1.481 1.149-2.3 1.149-.642 0-1.195-.242-1.594-.664-.574-.618-.884-1.634-.884-3.183 0-1.524.157-2.629.532-3.383a2.133 2.133 0 011.945-1.194c.71 0 1.22.222 1.95.864l1.061-1.392c-.84-.774-1.816-1.17-3.01-1.17-1.086 0-2.055.396-2.875 1.126zm6.503-12.36h3.181V9.893c0-1.19-.075-1.599-.318-2.301-.388-1.091-1.648-1.77-3.225-1.77-1.263 0-2.669.532-3.52 1.334 0-.148.052-.655.052-1.044V3.64c0-1.187-.075-2.35-.218-3.03l-3.325.775c.147.511.243 1.674.243 2.837V18.57h3.3V9.675c.728-.654 1.768-1.138 2.57-1.138.921 0 1.26.46 1.26 1.695v8.338zm4.16 8.202c0-.84-.665-1.48-1.46-1.48-.799 0-1.44.662-1.44 1.48 0 .798.62 1.46 1.416 1.46.82 0 1.484-.662 1.484-1.46zm4.172-15.814c0-1.719.702-2.688 1.938-2.688.655 0 1.116.242 1.434.727.29.46.386.945.386 1.865v.147h-3.758v-.051zm-.048 2.425h7.178v-.75c0-2.592-.51-4.267-1.649-5.43-.802-.825-2.16-1.31-3.59-1.31-1.65 0-2.885.536-3.905 1.675-1.093 1.21-1.554 2.688-1.554 4.917 0 3.906 2.305 6.426 5.871 6.426 1.748 0 3.253-.56 4.683-1.722l-1.263-1.94c-.993.824-2.038 1.237-3.153 1.237-1.672 0-2.618-1.09-2.618-3.005v-.098zm13.707 16.53a4.1 4.1 0 00-2.058.553c-.464.263-.799.552-1.44 1.081 0-.686-.11-1.17-.376-1.702l-1.925.532c.311.795.424 1.303.424 2.63v8.246h2.014v-8.202c.75-.795 1.945-1.415 2.74-1.415.508 0 .908.156 1.13.443.263.354.351.706.351 1.702v7.472h2.015v-8.38c0-.507-.09-.992-.267-1.39-.395-.953-1.437-1.57-2.608-1.57zM51.61 8.437c-.462.414-1.093.56-2.548.56H47.92V4.44h1.214c.827 0 1.53.096 1.916.243.802.29 1.214 1.016 1.214 2.06 0 .703-.242 1.306-.654 1.694zm.46 2.886c2.086-.048 3.758-2.132 3.758-4.655 0-2.954-1.962-4.942-4.946-4.942h-6.284V18.57h3.322v-7.03c.221.024.369.072.535.147.607.266 1.117 1.091 2.79 4.12a94.904 94.904 0 001.576 2.762h4s-3.079-5.33-4.047-6.545c-.219-.29-.366-.436-.704-.702zm12.462.968c0 2.934-.607 4.195-2.014 4.195-.631 0-1.358-.337-1.652-1.02-.266-.627-.41-1.694-.41-3.127 0-1.235.123-2.107.338-2.762.27-.774.898-1.259 1.676-1.259.58 0 1.089.243 1.407.655.436.556.655 1.647.655 3.318zm1.986 4.826c1.068-1.214 1.553-2.667 1.553-4.802 0-2.008-.436-3.366-1.43-4.532-1.069-1.259-2.45-1.862-4.222-1.862-3.345 0-5.577 2.591-5.577 6.494 0 3.901 2.208 6.42 5.577 6.42 1.918 0 3.153-.654 4.1-1.718zm9.55 1.648l4.506-12.602H77.16l-1.868 5.914c-.194.58-.388 1.306-.484 1.719-.147.606-.389 1.988-.389 1.988s-.433-1.818-.652-2.572l-2.103-7.049h-3.437l2.99 8.918c.123.386.778 2.326 1.164 3.489h.826c-.29.727-.385.945-.702 1.453-.267.413-.56.754-.922 1.02-.485.34-1.31.63-2.014.825L70.849 24a5.935 5.935 0 002.843-1.14c.898-.654 1.53-1.698 2.376-4.095zM87.81 13.14l-.051 2.666c-.485.532-1.092.85-1.696.85-.827 0-1.43-.655-1.43-1.627 0-1.477.774-1.89 3.03-1.89h.147zm2.618 6.06l1.723-1.988c-.945-.703-1.163-1.211-1.163-2.545v-.218l.07-4.17c.025-1.33-.046-1.72-.217-2.231-.485-1.381-1.918-2.156-4.004-2.156-1.14 0-2.18.22-3.396.727-.87.365-1.358.607-2.014 1.02l1.383 2.325c1.337-.896 2.55-1.404 3.59-1.404 1.188 0 1.458.46 1.458 1.841v.508c-.27-.024-.485-.024-.727-.024-3.956 0-5.97 1.357-5.97 4.267 0 2.473 1.505 3.878 4.27 3.878 1.02 0 1.891-.243 2.498-.68.243-.17.509-.412.752-.654.317.63.996 1.187 1.747 1.504zm4.563 11.043l-2.079 6.302a19.61 19.61 0 00-.665 2.432h-.04a32.775 32.775 0 00-.666-2.39l-2.076-6.344h-2.218l3.963 11.098h1.901l4.035-11.098H94.99zm1.926-11.384c.706 0 1.382-.119 1.941-.338l-.559-1.94c-.167.048-.243.048-.363.048-.265 0-.532-.12-.654-.338-.195-.338-.219-.631-.219-2.763v-9.67l-.17-2.132H93.57l.167 3.393v9.256c0 1.774.05 2.16.293 2.79.386 1.04 1.502 1.695 2.885 1.695zm3.164 15.783c0-2.011.774-3.27 2.324-3.27a2 2 0 011.594.77c.44.553.686 1.44.686 2.5h-4.604zm-.02 1.505h6.747v-.355c-.02-2.544-.376-3.779-1.352-4.775-.771-.794-1.768-1.194-3.007-1.194-1.371 0-2.457.485-3.342 1.525-.951 1.13-1.327 2.367-1.327 4.29 0 3.623 1.88 5.86 4.956 5.86 1.437 0 2.745-.468 3.827-1.419l-.772-1.215c-.799.71-1.683 1.061-2.724 1.061-1.062 0-1.97-.42-2.543-1.303-.331-.531-.464-1.261-.464-2.21v-.265zm6.983-17.578h3.543V1.726h-3.543V18.57zm12.632 0h3.2V9.505c0-.774-.07-1.31-.24-1.767-.39-1.07-1.602-1.793-2.984-1.793-.727 0-1.577.19-2.229.529-.536.292-.949.582-1.434.924 0-.512-.17-1.044-.46-1.553l-2.888.823c.294.825.437 1.844.437 2.909v8.993h3.25V9.795c.753-.675 1.603-1.116 2.26-1.116.845 0 1.088.417 1.088 1.819v8.072zm8.871-9.089c0-.726.627-1.21 1.574-1.21.925 0 1.822.266 3.058.896l1.068-2.182c-1.14-.556-2.45-1.163-4.44-1.163-2.888 0-4.803 1.624-4.803 4.048 0 .798.266 1.695.703 2.23.437.533 1.454 1.112 2.28 1.259l1.454.266c1.31.242 1.918.679 1.918 1.528 0 .8-.726 1.405-1.649 1.405-1.405 0-3.129-.798-4.122-1.405l-1.165 2.373c1.816.948 3.492 1.433 5.018 1.433 3.18 0 5.314-1.746 5.314-4.315 0-.824-.218-1.527-.68-2.11-.435-.556-.944-1.017-2.474-1.406l-1.501-.388c-1.144-.29-1.553-.628-1.553-1.259zm11.936 9.379c.85 0 1.7-.167 2.645-.556l-.413-1.937c-.58.167-.874.239-1.164.239-1.072 0-1.371-.406-1.396-1.832V8.39h2.076l-.004-2.227h-2.072V2.238l-3.235 1.07v2.855h-1.24V8.39h1.24v6.817c.003 1.061.027 1.316.217 1.835.387 1.092 1.697 1.818 3.346 1.818zm2.802 15.783h-4.601c0-2.011.775-3.27 2.324-3.27.707 0 1.24.33 1.591.77.444.553.686 1.44.686 2.5zm2.123 1.15c-.02-2.544-.375-3.779-1.348-4.775-.775-.794-1.771-1.194-3.01-1.194-1.369 0-2.455.485-3.339 1.525-.952 1.13-1.331 2.367-1.331 4.29 0 3.623 1.884 5.86 4.96 5.86 1.437 0 2.74-.468 3.826-1.419l-.775-1.215c-.795.71-1.683 1.061-2.721 1.061-1.06 0-1.969-.42-2.543-1.303-.334-.531-.467-1.261-.467-2.21v-.265h6.748v-.355zm-.812-17.223h3.236V5.089l-3.236 1.074V18.57zm3.625-16.514c0-1.138-.871-2.056-1.96-2.056-1.112 0-2.03.918-2.03 2.056 0 1.136.894 2.054 1.98 2.054 1.116 0 2.01-.918 2.01-2.054zm1.266 29.692v-.2a4.59 4.59 0 00-.376-1.703l-1.969.508c.266.685.42 1.415.42 2.766v8.134h2.034V34.11c0-1.214 1.064-2.254 2.301-2.254.225 0 .379.045.576.112l.708-2.035a2.056 2.056 0 00-.688-.11c-1.17 0-2.122.642-3.006 1.924zm4.864-12.888c.85 0 1.7-.167 2.646-.556l-.414-1.937c-.58.167-.874.239-1.164.239-1.071 0-1.375-.406-1.396-1.832V8.39h2.076l-.004-2.227h-2.072V2.238l-3.236 1.07v2.855h-1.238V8.39h1.238v6.817c.004 1.061.028 1.316.219 1.835.385 1.092 1.696 1.818 3.345 1.818zm6.188 15.783h-4.605c0-2.011.779-3.27 2.325-3.27.71 0 1.24.33 1.593.77.445.553.687 1.44.687 2.5zm.771-3.625c-.771-.794-1.768-1.194-3.007-1.194-1.369 0-2.453.485-3.338 1.525-.952 1.13-1.332 2.367-1.332 4.29 0 3.623 1.885 5.86 4.957 5.86 1.44 0 2.911-.468 3.997-1.419l-.942-1.215c-.796.71-1.683 1.061-2.72 1.061-1.065 0-1.97-.42-2.546-1.303-.332-.531-.465-1.261-.465-2.21v-.265h6.915v-.355c-.02-2.544-.543-3.779-1.519-4.775zm5.216-12.107l2.307-1.31c-.488-.583-.754-1.428-.754-2.254V6.163h-3.103v9.086c-.242.606-1.211 1.19-2.014 1.19-.485 0-.97-.242-1.14-.584-.17-.337-.27-.92-.27-2.035V6.163h-3.197v8.239c0 1.259.07 1.914.265 2.473.413 1.187 1.916 2.009 3.663 2.009 1.311 0 2.474-.41 3.274-1.187.218.508.56.92.97 1.214zm7.789-4.137V8.39h2.074l.827-2.227h-2.901V2.238l-3.236 1.07v2.855h-1.236V8.39h1.236v6.817c.004 1.061.027 1.316.218 1.835.389 1.092 1.7 1.818 3.345 1.818.854 0 1.7-.167 2.646-.556l-.414-1.937c-.58.167-.87.239-1.163.239-1.072 0-1.372-.406-1.396-1.832zm8.232-12.718c0-1.138-.87-2.056-1.96-2.056-1.112 0-2.03.918-2.03 2.056 0 1.136.898 2.054 1.98 2.054 1.117 0 2.01-.918 2.01-2.054zm8.878 10.235c0 2.934-.604 4.195-2.01 4.195-.631 0-1.359-.337-1.653-1.02-.266-.627-.41-1.694-.41-3.127 0-1.235.121-2.107.339-2.762.267-.774.898-1.259 1.676-1.259.58 0 1.089.243 1.406.655.437.556.652 1.647.652 3.318zm1.99 4.826c1.068-1.214 1.554-2.667 1.554-4.802 0-2.008-.438-3.366-1.431-4.532-1.068-1.259-2.451-1.862-4.222-1.862-3.35 0-5.577 2.591-5.577 6.494 0 3.901 2.208 6.42 5.577 6.42 1.918 0 3.154-.654 4.1-1.718zm12.857 1.453V9.505c0-.774-.071-1.31-.242-1.767-.389-1.07-1.6-1.793-2.983-1.793-.727 0-1.576.19-2.232.529-.532.292-.946.582-1.43.924 0-.512-.17-1.044-.46-1.553l-2.889.823c.291.825.438 1.844.438 2.909v8.993h3.249V9.795c.751-.675 1.604-1.116 2.256-1.116.85 0 1.092.417 1.092 1.819v8.072h3.201z" mask="url(#mask-2)" transform="translate(62.51 4.724)"></path><path d="M0 52.435h52.479V0H0v52.435zm3.216-3.216h46.048V3.209H3.216v46.01z"></path><path d="M36.8 12.072c1.635 0 2.942 1.375 2.942 3.086 0 1.71-1.345 3.087-3.014 3.087-1.635 0-2.98-1.378-2.98-3.087 0-1.711 1.383-3.086 3.052-3.086zm-2.506 9.256l4.865-1.617v19.491h-4.865V21.328zM13.217 39.202h4.977V28.42c.399.034.542.11.798.218.871.447 1.67 1.675 4.174 6.323a147.61 147.61 0 002.362 4.242h5.992s-4.616-8.184-6.067-10.043c-.324-.447-.542-.669-1.05-1.078 3.122-.072 5.628-3.274 5.628-7.142 0-4.536-2.943-7.588-7.407-7.588l-9.407-.038v25.89zM20.01 17.52c1.232 0 2.287.146 2.866.371 1.202.485 1.817 1.563 1.817 3.162 0 1.078-.363 2.008-.984 2.606-.685.63-1.631.852-3.809.852h-1.706l.034-6.991h1.782z"></path></g></svg>